{
  "title": "Brick Mansions 2014 DVDRip x264 AC3-MiLLENiUM",
  "uid": 10552565,
  "size": 1453078455,
  "categoryP": "video",
  "categoryS": "movies",
  "magnet": "?xt=urn:btih:23da8344bf5c4599d9b76d5e976aeb16e4672354&amp;dn=Brick+Mansions+2014+DVDRip+x264+AC3-MiLLENiUM&amp;tr=udp%3A%2F%2Ftracker.openbittorrent.com%3A80&amp;tr=udp%3A%2F%2Fopen.demonii.com%3A1337&amp;tr=udp%3A%2F%2Ftracker.coppersurfer.tk%3A6969&amp;tr=udp%3A%2F%2Fexodus.desync.com%3A6969",
  "seeders": 114,
  "leechers": 18,
  "uploader": "xxxlavalxxx",
  "files": -1,
  "time": 1405352416,
  "description": "[IMG]http://i.imgur.com/SGejxDG.jpg[/IMG]\n\n &lt;a href=&quot;\nhttp://www.imdb.com/title/tt1430612/&quot; rel=&quot;nofollow&quot; target=&quot;_NEW&quot;&gt;\nhttp://www.imdb.com/title/tt1430612/&lt;/a&gt;\n\n\nAn undercover Detroit cop navigates a dangerous neighborhood that's surrounded by a containment wall with the help of an ex-con in order to bring down a crime lord and his plot to devastate the entire city.\n\nDirector: Camille Delamarre\nWriters: Luc Besson (screenplay), Luc Besson (screenplay)\nStars: Paul Walker, David Belle, RZA \nGenres: Action | Crime | Drama\nCountry: France | Canada\nLanguage: English\n\n\nGeneral\n\nSource...............: NTSC.DVDR [THANKS]\nIMDb Information.... : http://www.imdb.com/title/tt1430612/\nSample Included......: yes\n\nGeneral\nComplete name                            : Brick Mansions 2014 DVDRip x264 AC3-MiLLENiUM.mkv\nFormat                                   : Matroska\nFormat version                           : Version 2\nFile size                                : 1.33 GiB\nDuration                                 : 1h 30mn\nOverall bit rate mode                    : Variable\nOverall bit rate                         : 2 110 Kbps\nEncoded date                             : UTC 2014-07-14 12:36:11\nWriting application                      : mkvmerge v7.0.0 ('Where We Going') 32bit built on Jun  9 2014 15:08:34\nWriting library                          : libebml v1.3.0 + libmatroska v1.4.1\n\nVideo\nID                                       : 1\nFormat                                   : AVC\nFormat/Info                              : Advanced Video Codec\nFormat profile                           : &lt;a class=&quot;__cf_email__&quot; href=&quot;/cdn-cgi/l/email-protection&quot; data-cfemail=&quot;e0a8898788a0acd4ced1&quot;&gt;[email&amp;#160;protected]&lt;/a&gt;&lt;script cf-hash='f9e31' type=&quot;text/javascript&quot;&gt;\n/* &lt;![CDATA[ */!function(){try{var t=&quot;currentScript&quot;in document?document.currentScript:function(){for(var t=document.getElementsByTagName(&quot;script&quot;),e=t.length;e--;)if(t[e].getAttribute(&quot;cf-hash&quot;))return t[e]}();if(t&amp;&amp;t.previousSibling){var e,r,n,i,c=t.previousSibling,a=c.getAttribute(&quot;data-cfemail&quot;);if(a){for(e=&quot;&quot;,r=parseInt(a.substr(0,2),16),n=2;a.length-n;n+=2)i=parseInt(a.substr(n,2),16)^r,e+=String.fromCharCode(i);e=document.createTextNode(e),c.parentNode.replaceChild(e,c)}}}catch(u){}}();/* ]]&gt; */&lt;/script&gt;\nFormat settings, CABAC                   : Yes\nFormat settings, ReFrames                : 3 frames\nCodec ID                                 : V_MPEG4/ISO/AVC\nDuration                                 : 1h 30mn\nBit rate mode                            : Variable\nBit rate                                 : 1 620 Kbps\nMaximum bit rate                         : 40.0 Mbps\nWidth                                    : 720 pixels\nHeight                                   : 304 pixels\nDisplay aspect ratio                     : 2.35:1\nFrame rate mode                          : Constant\nFrame rate                               : 23.976 fps\nColor space                              : YUV\nChroma subsampling                       : 4:2:0\nBit depth                                : 8 bits\nScan type                                : Progressive\nBits/(Pixel*Frame)                       : 0.309\nStream size                              : 1.02 GiB (77%)\nWriting library                          : x264 core 142 r2431 ac76440\n\nAudio\nID                                       : 2\nFormat                                   : AC-3\nFormat/Info                              : Audio Coding 3\nMode extension                           : CM (complete main)\nFormat settings, Endianness              : Big\nCodec ID                                 : A_AC3\nDuration                                 : 1h 30mn\nBit rate mode                            : Constant\nBit rate                                 : 448 Kbps\nChannel(s)                               : 6 channels\nChannel positions                        : Front: L C R, Side: L R, LFE\nSampling rate                            : 48.0 KHz\nBit depth                                : 16 bits\nCompression mode                         : Lossy\nStream size                              : 289 MiB (21%)\nLanguage                                 : English\nDefault                                  : Yes\nForced                                   : No\n\n\nscreens\n &lt;a href=&quot;\nhttp://i.imgur.com/I3mxxkz.jpg&quot; rel=&quot;nofollow&quot; target=&quot;_NEW&quot;&gt;\nhttp://i.imgur.com/I3mxxkz.jpg&lt;/a&gt; &lt;a href=&quot;\nhttp://i.imgur.com/QlK6ShU.jpg&quot; rel=&quot;nofollow&quot; target=&quot;_NEW&quot;&gt;\nhttp://i.imgur.com/QlK6ShU.jpg&lt;/a&gt; &lt;a href=&quot;\nhttp://i.imgur.com/awgFBm4.jpg&quot; rel=&quot;nofollow&quot; target=&quot;_NEW&quot;&gt;\nhttp://i.imgur.com/awgFBm4.jpg&lt;/a&gt; &lt;a href=&quot;\nhttp://i.imgur.com/jwyZifP.jpg&quot; rel=&quot;nofollow&quot; target=&quot;_NEW&quot;&gt;\nhttp://i.imgur.com/jwyZifP.jpg&lt;/a&gt; &lt;a href=&quot;\nhttp://i.imgur.com/1G7eEGX.jpg&quot; rel=&quot;nofollow&quot; target=&quot;_NEW&quot;&gt;\nhttp://i.imgur.com/1G7eEGX.jpg&lt;/a&gt; &lt;a href=&quot;\nhttp://i.imgur.com/Y7vlPeu.jpg&quot; rel=&quot;nofollow&quot; target=&quot;_NEW&quot;&gt;\nhttp://i.imgur.com/Y7vlPeu.jpg&lt;/a&gt; &lt;a href=&quot;\nhttp://i.imgur.com/faOBwiz.jpg&quot; rel=&quot;nofollow&quot; target=&quot;_NEW&quot;&gt;\nhttp://i.imgur.com/faOBwiz.jpg&lt;/a&gt;",
  "parsed": {
    "xt": "urn:btih:23da8344bf5c4599d9b76d5e976aeb16e4672354",
    "dn": "Brick Mansions 2014 DVDRip x264 AC3-MiLLENiUM",
    "tr": [
      "udp://exodus.desync.com:6969",
      "udp://open.demonii.com:1337",
      "udp://tracker.coppersurfer.tk:6969",
      "udp://tracker.openbittorrent.com:80"
    ],
    "infoHash": "23da8344bf5c4599d9b76d5e976aeb16e4672354",
    "infoHashBuffer": {
      "type": "Buffer",
      "data": [
        35,
        218,
        131,
        68,
        191,
        92,
        69,
        153,
        217,
        183,
        109,
        94,
        151,
        106,
        235,
        22,
        228,
        103,
        35,
        84
      ]
    },
    "name": "Brick Mansions 2014 DVDRip x264 AC3-MiLLENiUM",
    "announce": [
      "udp://exodus.desync.com:6969",
      "udp://open.demonii.com:1337",
      "udp://tracker.coppersurfer.tk:6969",
      "udp://tracker.openbittorrent.com:80"
    ],
    "urlList": []
  },
  "previous": 5,
  "peers": 2,
  "last_updated": "2016-12-26T18:59:50.055Z"
}